<?xml version="1.0" encoding="UTF-8" standalone="no"?>
<svg
   xmlns:osb="http://www.openswatchbook.org/uri/2009/osb"
   xmlns:dc="http://purl.org/dc/elements/1.1/"
   xmlns:cc="http://creativecommons.org/ns#"
   xmlns:rdf="http://www.w3.org/1999/02/22-rdf-syntax-ns#"
   xmlns:svg="http://www.w3.org/2000/svg"
   xmlns="http://www.w3.org/2000/svg"
   xmlns:sodipodi="http://sodipodi.sourceforge.net/DTD/sodipodi-0.dtd"
   xmlns:inkscape="http://www.inkscape.org/namespaces/inkscape"
   width="715.09515"
   height="233.38394"
   viewBox="0 0 189.20225 61.7495"
   version="1.1"
   id="svg8"
   inkscape:version="1.0.1 (3bc2e813f5, 2020-09-07)"
   sodipodi:docname="logo.svg">
  <defs
     id="defs2">
    <linearGradient
       inkscape:collect="always"
       id="linearGradient1016"
       osb:paint="gradient">
      <stop
         style="stop-color:#ffff00;stop-opacity:1;"
         offset="0"
         id="stop1012" />
      <stop
         style="stop-color:#ffff00;stop-opacity:0;"
         offset="1"
         id="stop1014" />
    </linearGradient>
    <inkscape:path-effect
       effect="skeletal"
       id="path-effect106"
       is_visible="true"
       lpeversion="1"
       pattern="M 0,5 C 0,2.24 2.24,0 5,0 7.76,0 10,2.24 10,5 10,7.76 7.76,10 5,10 2.24,10 0,7.76 0,5 Z"
       copytype="single_stretched"
       prop_scale="1"
       scale_y_rel="false"
       spacing="0"
       normal_offset="0"
       tang_offset="0"
       prop_units="false"
       vertical_pattern="false"
       hide_knot="false"
       fuse_tolerance="0" />
  </defs>
  <sodipodi:namedview
     id="base"
     pagecolor="#ffffff"
     bordercolor="#666666"
     borderopacity="1.0"
     inkscape:pageopacity="0.0"
     inkscape:pageshadow="2"
     inkscape:zoom="2.2768838"
     inkscape:cx="341.47456"
     inkscape:cy="115.70052"
     inkscape:document-units="mm"
     inkscape:current-layer="g996"
     inkscape:document-rotation="0"
     showgrid="false"
     inkscape:window-width="1316"
     inkscape:window-height="704"
     inkscape:window-x="50"
     inkscape:window-y="27"
     inkscape:window-maximized="1"
     width="296mm"
     units="px"
     fit-margin-top="0"
     fit-margin-left="0"
     fit-margin-right="0"
     fit-margin-bottom="0" />
  <metadata
     id="metadata5">
    <rdf:RDF>
      <cc:Work
         rdf:about="">
        <dc:format>image/svg+xml</dc:format>
        <dc:type
           rdf:resource="http://purl.org/dc/dcmitype/StillImage" />
        <dc:title></dc:title>
      </cc:Work>
    </rdf:RDF>
  </metadata>
  <g
     inkscape:label="Layer 1"
     inkscape:groupmode="layer"
     id="layer1"
     transform="translate(-4.2333339,-4.2333338)">
    <g
       aria-label="Royson"
       id="text71"
       style="font-style:normal;font-weight:normal;font-size:50.8px;line-height:1.25;font-family:sans-serif;letter-spacing:0px;fill:#000000;fill-opacity:1;stroke:none;stroke-width:0.264583">
      <g
         id="g989">
        <g
           id="g996">
          <g
             id="g1003"
             transform="matrix(1.127254,0,0,1.127254,-22.154984,-15.912116)"
             style="fill:#3366cc">
            <g
               id="g1010"
               transform="translate(1.1735746,1.1735746)"
               style="fill:#3366cc;fill-opacity:1;fill-rule:nonzero">
              <path
                 id="path86"
                 style="font-style:normal;font-variant:normal;font-weight:normal;font-stretch:normal;font-size:50.8px;font-family:Gayathri;-inkscape-font-specification:Gayathri;fill:#3366cc;fill-opacity:1;fill-rule:nonzero;stroke-width:0.999999"
                 d="m 137.07812,67.544922 c -4.21874,0 -7.59375,1.968751 -7.59374,4.3125 V 129.2793 c -34.307267,15.44265 -45.362517,45.80585 -39.527349,64.41992 3.167067,10.10287 12.737139,18.01215 22.593749,19.88672 9.85661,1.87456 28.28472,3.08176 31.30664,-18.74805 0.0511,-0.0943 0.0882,-0.18874 0.13477,-0.2832 1.12281,-18.58879 0.77343,-39.26287 0.77343,-58.38477 h 33.65626 c 13.12498,0 18.84375,13.3125 24.84374,26.8125 5.71876,12.75 7.68293,54.70964 23.07032,70.47461 14.02458,20.94186 47.67403,26.79963 62.30078,29.14063 20.03158,3.1362 30.92337,3.3381 45.2168,2.98828 22.6479,0.30869 53.30379,-9.14062 67.3496,-17.25 19.56677,-11.29687 28.32813,-27.79102 28.32813,-56.66602 v -86.8125 c 0,-2.34375 -3.46875,-4.3125 -7.6875,-4.3125 -4.21875,0 -7.59375,1.96875 -7.59375,4.3125 v 49.5 c 0,16.5 -10.31252,33.75 -27.84375,33.75 -18.28126,0 -27.84375,-16.6875 -27.84375,-33.5625 v -49.6875 c 0,-2.34375 -3.375,-4.3125 -7.59375,-4.3125 -4.21875,0 -7.6875,1.96875 -7.6875,4.3125 v 49.6875 c 0,25.6875 18.37499,42.09375 43.125,42.09375 10.31248,0 21.65625,-4.21874 27.84375,-12.28125 v 7.3125 c 0,19.78125 -2.08619,34.11379 -20.61328,43.5957 -10.53922,5.39383 -35.14967,16.91839 -60.04297,16.97852 -17.42557,-0.19452 -25.74203,1.07399 -43.91211,-3.54297 -8.17237,-1.91197 -36.4788,-5.35426 -51.95508,-25.56836 -12.55656,-13.8527 -14.49218,-50.68164 -19.64844,-62.11914 -4.31249,-9.75 -8.53125,-19.03125 -16.03124,-25.3125 17.15624,-2.53125 32.53125,-15.5625 32.53124,-33.84375 0,-21.093747 -19.78126,-34.312498 -39.46874,-34.312498 z m 7.6875,8.53125 h 50.34376 c 13.49999,0 24.1875,12.656253 24.1875,25.781248 0,13.125 -10.68752,25.78125 -24.1875,25.78125 h -50.34376 z m -15.28124,62.003908 c 0.21686,19.56006 2.52595,39.15775 -0.16989,55.80431 -2.832,7.80861 -8.76129,9.08617 -15.27152,7.84803 -6.52042,-1.24007 -12.00764,-6.62279 -14.453126,-14.42383 -4.346395,-13.86491 1.019066,-35.08215 29.894536,-49.22851 z"
                 transform="scale(0.26458333)"
                 sodipodi:nodetypes="sccsscccsccccssssssssssssscsscccccssscsssccccssc" />
              <path
                 d="m 75.503952,26.726445 c -7.639844,0 -13.022461,5.159375 -13.022461,12.699999 0,7.540625 5.382617,12.7 13.022461,12.7 7.639843,0 13.022461,-5.159375 13.022461,-12.7 0,-7.540624 -5.382618,-12.699999 -13.022461,-12.699999 z m 0,2.257226 c 5.779492,0 8.979297,5.18418 8.979297,10.442773 0,5.258594 -3.199805,10.442774 -8.979297,10.442774 -5.779492,0 -8.979297,-5.18418 -8.979297,-10.442774 0,-5.258593 3.199805,-10.442773 8.979297,-10.442773 z"
                 style="font-style:normal;font-variant:normal;font-weight:normal;font-stretch:normal;font-size:50.8px;font-family:Gayathri;-inkscape-font-specification:Gayathri;fill:#3366cc;fill-opacity:1;fill-rule:nonzero;stroke-width:0.264583"
                 id="path88" />
              <path
                 d="m 126.32132,52.126444 c 4.61368,0 10.542,-2.306836 10.542,-7.639843 0,-2.306836 -1.017,-3.919141 -2.92696,-5.159375 -2.25722,-1.463477 -4.71289,-1.711524 -7.06933,-2.058789 -0.91778,-0.148828 -2.57969,-0.471289 -3.99356,-1.041797 -1.11621,-0.446485 -2.60449,-1.289844 -2.60449,-2.654102 0,-3.100586 3.44785,-4.588867 6.12676,-4.588867 2.77812,0 5.08496,1.513086 5.77949,4.316016 0.14883,0.644922 1.0666,0.942578 1.98438,0.942578 1.01699,0 2.03398,-0.37207 2.03398,-1.041797 0,-0.173633 -0.0496,-0.347266 -0.12402,-0.595313 -1.24024,-4.142382 -5.60586,-5.87871 -9.67383,-5.87871 -4.11758,0 -10.16992,1.984375 -10.16992,6.920507 0,2.207617 1.21543,4.01836 3.00136,5.233789 2.20762,1.488282 4.7625,1.686719 7.21817,2.033985 0.99219,0.148828 2.6789,0.446484 4.06797,1.066601 1.0914,0.471289 2.33164,1.314649 2.33164,2.654102 0,3.398242 -3.54707,5.233789 -6.52364,5.233789 -3.29902,0 -5.80429,-1.835547 -6.67246,-5.134571 -0.17363,-0.669726 -1.0666,-0.967382 -1.95957,-0.967382 -0.66972,0 -2.05879,0.198437 -2.05879,1.091406 0,0.198437 0.0496,0.446484 0.0992,0.669726 0.96739,4.787305 6.12676,6.598047 10.5916,6.598047 z"
                 style="font-style:normal;font-variant:normal;font-weight:normal;font-stretch:normal;font-size:50.8px;font-family:Gayathri;-inkscape-font-specification:Gayathri;fill:#3366cc;fill-opacity:1;fill-rule:nonzero;stroke-width:0.264583"
                 id="path92" />
              <path
                 d="m 150.89627,26.726445 c -7.63985,0 -13.02246,5.159375 -13.02246,12.699999 0,7.540625 5.38261,12.7 13.02246,12.7 7.63984,0 13.02246,-5.159375 13.02246,-12.7 0,-7.540624 -5.38262,-12.699999 -13.02246,-12.699999 z m 0,2.257226 c 5.77949,0 8.97929,5.18418 8.97929,10.442773 0,5.258594 -3.1998,10.442774 -8.97929,10.442774 -5.7795,0 -8.9793,-5.18418 -8.9793,-10.442774 0,-5.258593 3.1998,-10.442773 8.9793,-10.442773 z"
                 style="font-style:normal;font-variant:normal;font-weight:normal;font-stretch:normal;font-size:50.8px;font-family:Gayathri;-inkscape-font-specification:Gayathri;fill:#3366cc;fill-opacity:1;fill-rule:nonzero;stroke-width:0.264583"
                 id="path94" />
              <path
                 d="m 186.87175,52.151249 c 1.11621,0 2.03398,-0.520899 2.03398,-1.141016 V 37.863749 c 0,-7.391797 -5.55625,-11.186914 -10.83964,-11.162109 -3.175,0 -6.39961,1.21543 -7.9375,3.96875 v -2.80293 c 0,-0.620117 -0.89297,-1.141015 -2.00918,-1.141015 -1.11621,0 -2.03399,0.520898 -2.03399,1.141015 v 23.142773 c 0,0.620117 0.91778,1.141016 2.03399,1.141016 1.11621,0 2.00918,-0.520899 2.00918,-1.141016 V 38.583085 c 0,-6.35 3.44785,-9.549804 7.59023,-9.549804 4.86172,0 7.14375,4.514453 7.14375,8.830468 v 13.146484 c 0,0.620117 0.89297,1.141016 2.00918,1.141016 z"
                 style="font-style:normal;font-variant:normal;font-weight:normal;font-stretch:normal;font-size:50.8px;font-family:Gayathri;-inkscape-font-specification:Gayathri;fill:#3366cc;fill-opacity:1;fill-rule:nonzero;stroke-width:0.264583"
                 id="path96" />
            </g>
          </g>
        </g>
      </g>
    </g>
  </g>
</svg>
